<svg xmlns="http://www.w3.org/2000/svg" viewBox="0 0 484.849 361.861" height="385.985" width="517.172"><path d="M365.64 358.724c-3.463-2.913-7.308-10.954-9.39-19.635-.673-2.807-.4-3.438 1.485-3.438 1.755 0 2.667 1.55 3.8 6.457 1.907 8.265 5.829 14.593 9.634 15.548 8.32 2.088 19.48-8.313 43.727-40.755 20.947-28.026 33.736-42.541 46.611-52.903l4.158-3.347-4.158.055c-2.287.03-6.408.866-9.158 1.856-6.584 2.372-7.595 2.304-10.392-.698-2.137-2.294-2.523-2.348-4.009-.557-3.82 4.603-9.974 5.127-9.974.85 0-1.54-.579-1.356-2.612.826-3.067 3.293-4.935 2.98-7.057-1.18-.85-1.665-1.553-2.298-1.563-1.407-.01.89-1.42 3.021-3.135 4.736-2.539 2.538-3.577 2.87-5.596 1.79-1.813-.971-3.18-.9-5.085.263-2.232 1.364-2.86 1.248-4.384-.808-1.666-2.248-1.924-2.268-4.084-.312-1.269 1.147-3.214 2.086-4.324 2.086-2.64 0-5.887-4.718-5.999-8.715-.077-2.755-.376-2.518-2.334 1.84-1.235 2.75-3.4 6.03-4.81 7.29-2.492 2.224-2.637 2.215-5.166-.313-3.596-3.596-3.323-9.07 1.149-23.029 2.062-6.438 3.73-13.054 3.708-14.702l-.042-2.996-2.387 2.864c-1.314 1.575-3.53 5.918-4.927 9.65-1.397 3.733-3.94 9.476-5.65 12.762-5.058 9.717-10.103 32.488-15.24 68.787-.825 5.821-4.212 5.448-4.212-.465 0-9.07 4.028-31.275 10.069-55.505 3.4-13.635 6.167-25.252 6.15-25.817-.015-.564-1.408 2.35-3.094 6.474-1.686 4.125-4.52 8.674-6.298 10.109-1.777 1.435-4.514 5.372-6.08 8.75-1.568 3.378-3.756 6.89-4.863 7.807-2.853 2.36-6.603.761-8.4-3.58-1.635-3.946-1.936-18.909-.512-25.42.804-3.68.546-3.524-4.298 2.598-5.472 6.914-8.481 9.111-12.479 9.111-2.077 0-2.72 1.407-4.054 8.875-1.396 7.812-3.596 11.587-5.59 9.593-.326-.325.22-4.467 1.213-9.203.993-4.736 1.705-8.618 1.583-8.626-.122-.007-2.464-1.139-5.205-2.514-2.74-1.375-6.925-5.127-9.3-8.338l-4.317-5.84-5.833 12.09c-16.927 35.077-40.014 38.595-50.338 7.67-4.878-14.612-6.255-25.328-6.26-48.707-.007-24.858 2.254-40.291 8.164-55.736 3.696-9.657 10.475-16.764 15.992-16.764 12.34 0 22.534 26.012 22.478 57.352-.05 27.346-7.42 43.354-20.651 44.845-5.22.588-5.782.41-5.378-1.707.322-1.694 1.829-2.542 5.31-2.99 10.757-1.383 16.273-15.458 16.164-41.25-.102-24.366-5.795-44.212-14.486-50.5-3.432-2.484-3.443-2.484-6.875 0-1.89 1.368-4.97 5.556-6.842 9.306-7.397 14.818-10.246 34.341-9.363 64.164.723 24.422 2.704 35.158 8.679 47.03 7.302 14.51 16.13 15.787 27.741 4.012 5.554-5.632 15.683-23.89 17.635-31.787.522-2.113-.354-8.029-2.314-15.625-4.897-18.983-6.252-29.536-6.223-48.475.046-31.266 6.854-46.203 17.62-38.663 3.761 2.635 8.029 11.353 12.115 24.75l3.377 11.07 5.447-12.643c6.454-14.98 15.039-28.703 20.297-32.448 3.963-2.821 7.159-3.439 8.294-1.602.37.599-2.363 10.302-6.073 21.562-3.71 11.261-8.822 29.756-11.359 41.1-5.443 24.338-13.158 65.35-12.43 66.078.28.28 1.9-.401 3.6-1.515 5.132-3.363 10.498-12.457 14.616-24.774 5.166-15.446 15.643-41.649 18.237-45.607 1.137-1.736 5.024-4.464 8.638-6.062 4.527-2.002 7.205-4.133 8.61-6.852 1.675-3.238 2.367-3.676 3.856-2.44 3.143 2.61-1.512 8.758-9.61 12.693-6.507 3.162-7.257 3.996-10.877 12.092-2.139 4.782-5.241 13.5-6.895 19.37-2.974 10.561-2.978 10.656-.394 8.846 3.397-2.38 4.07-2.316 7.056.67 2.042 2.043 2.5 4.167 2.5 11.603 0 5.006-.766 12.053-1.701 15.659-.936 3.606-1.417 6.273-1.07 5.926.904-.905 6.154-13.97 8.562-21.313 1.128-3.437 3.31-8.5 4.851-11.25s4.283-8.937 6.095-13.75c4.162-11.06 4.875-12.137 7.39-11.172 1.879.721 1.859 1.17-.241 5.355-2.803 5.586-7.091 18.639-8.892 27.067-.735 3.438-1.615 7.375-1.955 8.75-.34 1.375.59.25 2.07-2.5 3-5.58 6.034-9.375 7.495-9.375.532 0 1.851.884 2.931 1.965 2.693 2.692 2.476 10.326-.521 18.336-5.862 15.666-5.6 28.345.312 15.103 1.787-4.003 3.609-8.685 4.048-10.404.44-1.718 3.178-6.218 6.086-10 5.806-7.55 10.477-9.416 13.481-5.384.926 1.243 2.809 2.26 4.184 2.26 2.992 0 2.983.053-1.827 11.691-3.76 9.1-4.919 16.433-2.597 16.433.661 0 1.77-2.111 2.466-4.692 1.514-5.622 5.92-9.971 7.996-7.894 1.008 1.008.763 2.528-.906 5.627-1.257 2.336-2.03 4.998-1.715 5.916.316.92 2.199-1.371 4.202-5.116 5.079-9.492 11.84-16.69 14.233-15.151 1.585 1.02 1.36 2.193-1.563 8.153-4.135 8.433-4.423 10.454-.595 4.19 6.633-10.857 15.505-12.775 9.181-1.985-4.627 7.896-4.025 9.443 1.672 4.296 2.707-2.446 7.182-5.124 9.943-5.951 4.286-1.284 5.487-1.2 8.203.58 1.75 1.147 3.182 2.775 3.182 3.619 0 .843 1.265 1.603 2.812 1.688 5.251.288 12.794.323 18.438.084 4.87-.207 5.625.097 5.625 2.261 0 2.127-1.042 2.594-6.983 3.125-8.566.767-13.553 4.012-26.533 17.262-10.668 10.891-14.314 15.344-35.507 43.363-14.892 19.689-26.103 32.044-33.477 36.893-5.316 3.496-12.063 3.215-16.71-.695zm-25.842-92.975c6.848-13.243 11.571-38.724 8.127-43.848-3.485-5.185-11.908 15.175-13.262 32.055-.606 7.562.732 15.445 2.623 15.445.343 0 1.473-1.643 2.512-3.652zm55.62-10.605c4.785-10.027 5.732-14.643 3.76-18.329l-1.548-2.891-2.895 3.366c-1.592 1.85-3.48 5.474-4.196 8.05-1.63 5.868-1.716 17.811-.13 17.811.653 0 2.907-3.603 5.008-8.007zm56.48 1.799l2.95-2.459-4.062-.041c-2.234-.023-4.062.194-4.062.481 0 .288-.342 1.413-.76 2.5-1.074 2.802 2.324 2.526 5.934-.481zm-143.962-37.23c-.026-20.75-.44-30.248-1.26-28.844-.671 1.151-3.24 7.901-5.709 15-2.468 7.1-5.786 16.108-7.373 20.02l-2.885 7.114 2.461 4.761c2.888 5.588 10.2 12.887 12.91 12.887 1.641 0 1.889-4.12 1.856-30.937zm-14.231-6.007a1415.63 1415.63 0 0 0 8.727-24.696l4.18-12.267-3.037-11.687c-3.639-14.004-7.976-24.128-11.79-27.519l-2.8-2.489-2.35 2.902c-1.292 1.596-2.965 4.966-3.717 7.489-2.182 7.314-2.946 36.982-1.278 49.587 1.465 11.067 6.254 32.371 7.09 31.536.234-.235 2.473-6.02 4.975-12.856zm33.656-50.782c2.543-9.156 6.235-21.148 8.204-26.648l3.58-10-4.788 5.28c-5.464 6.023-11.42 16.945-18.59 34.095l-4.965 11.875 1.007 13.75c.553 7.563 1.072 18.532 1.152 24.375l.145 10.625 4.816-23.352c2.649-12.844 6.897-30.844 9.44-40zM37.003 292.214c-7.468-5.036-13.623-13.883-20.558-29.55C4.253 235.123-.044 214.513 0 183.777c.025-17.172.567-23.768 2.827-34.375 7.858-36.881 23.095-65.241 38.897-72.397 10.51-4.76 17.994-3.137 26.433 5.732 22.276 23.412 26.968 99.345 8.389 135.764-4.03 7.899-12.009 15.72-17.562 17.216-9.022 2.43-22.98-4.732-28.81-14.783-1.865-3.215-1.922-3.957-.4-5.22 1.421-1.18 2.072-.896 3.262 1.42 4.178 8.128 13.801 14.768 21.402 14.768 11.89 0 22.149-16.278 26.71-42.384 7.302-41.785-.24-88.431-17.009-105.2-13.153-13.153-29.426-4.046-43.028 24.08-11.86 24.525-17.034 47.81-16.987 76.465.044 27.12 4.692 49.586 15.42 74.54 8.799 20.463 16.392 29.88 25.684 31.851 6.749 1.432 16.265-4.002 22.409-12.794 13.826-19.789 28.302-58.553 44.692-119.683 6.589-24.572 11.73-42.446 20.852-72.5 2.087-6.875 5.917-17.562 8.512-23.75 2.594-6.187 5.716-14.322 6.937-18.077 2.897-8.908 17.657-41.397 19.765-43.505 1.81-1.81 5.836-.839 5.816 1.404-.006.785-3.373 13.767-7.48 28.847-17.72 65.057-34.824 148.459-41.27 201.239-1.711 14.016-1.763 31.942-.096 33.608 1.943 1.943 2.926-1.38 18.41-62.266 21.363-84.005 28.277-109.058 39.498-143.125 7.275-22.088 13.358-37.501 16.108-40.815 1.875-2.259 4.843-.607 4.843 2.696 0 1.574-1.986 10.655-4.412 20.179-20.056 78.714-34.691 161.201-36.45 205.44-.706 17.763.712 31.488 3.426 33.165 2.902 1.794 10.44-17.66 17.452-45.04 3.194-12.472 3.68-13.453 5.955-12.047 1.21.747.137 6.031-4.617 22.76-8.828 31.062-12.422 38.662-18.282 38.662-5.677 0-7.36-5.79-7.852-27.016-.665-28.685 4.844-71.17 17.293-133.35 5.06-25.274 17.567-79.562 20.793-90.259.415-1.375.375-2.144-.088-1.708-1.115 1.047-13.311 37.477-19.403 57.958-7.519 25.277-11.275 39.457-31.19 117.738-15.74 61.874-16.795 64.758-22.557 61.674-6.474-3.465-6.328-17.059.684-63.787 7.655-51.011 21.572-117.252 35.443-168.688 3.42-12.685 6.047-23.236 5.838-23.445-.593-.593-8.957 18.678-15.302 35.258-13.895 36.307-16.423 44.343-34.214 108.75-24.678 89.342-41.56 127.125-60.29 134.937-7.12 2.97-13.558 2.473-19.448-1.5zm154.623-4.246c-1.85-3.454-.796-12.852 1.722-15.37 1.763-1.763 2.133-1.76 3.911.018 3.637 3.636 1.772 18.035-2.335 18.035-1.025 0-2.509-1.207-3.298-2.683z"/></svg>